<?xml version="1.0" encoding="utf-8"?>
<!-- Generator: Adobe Illustrator 23.0.1, SVG Export Plug-In . SVG Version: 6.00 Build 0)  -->
<svg version="1.1" id="Layer_1" xmlns="http://www.w3.org/2000/svg" xmlns:xlink="http://www.w3.org/1999/xlink" x="0px" y="0px"
	 viewBox="0 0 450 114" style="enable-background:new 0 0 450 114;" xml:space="preserve">
<style type="text/css">
	.st0{fill:#060606;}
	.st1{fill:#BF175B;}
	.st2{fill:#EDB53A;}
</style>
<g>
	<path class="st0" d="M129.42,107.59V9.53h19.06v81.35h50v16.71H129.42z"/>
	<path class="st0" d="M276.64,108.28c-7.83,0-14.48-1.31-19.96-3.94c-5.48-2.62-9.9-6.24-13.26-10.84
		c-3.36-4.6-5.83-9.83-7.39-15.68c-1.57-5.85-2.35-11.95-2.35-18.3v-50h19.06v50c0,4.05,0.39,7.99,1.17,11.81
		c0.78,3.82,2.09,7.25,3.94,10.29s4.28,5.43,7.32,7.18c3.04,1.75,6.81,2.62,11.32,2.62c4.6,0,8.45-0.9,11.53-2.69
		c3.08-1.8,5.52-4.21,7.32-7.25c1.79-3.04,3.11-6.47,3.94-10.29c0.83-3.82,1.24-7.71,1.24-11.67v-50h18.92v50
		c0,6.72-0.81,13.03-2.42,18.92c-1.61,5.89-4.14,11.07-7.6,15.54c-3.45,4.47-7.89,7.96-13.33,10.5
		C290.68,107.02,284.19,108.28,276.64,108.28z"/>
	<path class="st0" d="M376.5,9.53l24.31,36.19l24.17-36.19h20.72l-33.98,49.72l32.87,48.34h-20.72l-23.06-34.8l-23.2,34.8h-20.85
		l32.87-48.34L355.64,9.53H376.5z"/>
</g>
<path class="st1" d="M67.11,101.29L15.29,35.22c-2.09-2.67-1.63-6.53,1.04-8.63L22.18,22c2.67-2.09,6.53-1.63,8.63,1.04l51.82,66.08
	c2.09,2.67,1.63,6.53-1.04,8.63l-5.85,4.59C73.07,104.43,69.21,103.96,67.11,101.29z"/>
<path class="st2" d="M14.22,89.25l49.99-67.48c2.02-2.73,5.87-3.3,8.59-1.28l5.81,4.31c2.73,2.02,3.3,5.87,1.28,8.59l-49.99,67.48
	c-2.02,2.73-5.87,3.3-8.59,1.28l-5.81-4.31C12.78,95.82,12.2,91.98,14.22,89.25z"/>
<g>
</g>
<g>
</g>
<g>
</g>
<g>
</g>
<g>
</g>
<g>
</g>
<g>
</g>
<g>
</g>
<g>
</g>
<g>
</g>
<g>
</g>
</svg>
